<svg xmlns="http://www.w3.org/2000/svg" xmlns:xlink="http://www.w3.org/1999/xlink" width="840" height="581.04"><rect width="840" height="581.04" rx="5" ry="5" class="a"/><svg y="0%" x="0%"><circle cx="20" cy="20" r="6" fill="#ff5f58"/><circle cx="40" cy="20" r="6" fill="#ffbd2e"/><circle cx="60" cy="20" r="6" fill="#18c132"/></svg><svg height="521.04" viewBox="0 0 80 52.104" width="800" x="15" xmlns="http://www.w3.org/2000/svg" xmlns:xlink="http://www.w3.org/1999/xlink" y="50"><style>@keyframes h{0%{transform:translateX(0)}.2%{transform:translateX(-80px)}6.7%{transform:translateX(-160px)}17.9%{transform:translateX(-240px)}26.2%{transform:translateX(-320px)}37.4%{transform:translateX(-400px)}57.1%{transform:translateX(-480px)}68.3%{transform:translateX(-560px)}76.4%{transform:translateX(-640px)}to{transform:translateX(-720px)}}.a{fill:#282d35}.f{fill:#b9c0cb;white-space:pre}</style><g font-family="Monaco,Consolas,Menlo,'Bitstream Vera Sans Mono','Powerline Symbols',monospace" font-size="1.67"><defs><symbol id="1"><text y="1.67" class="f">$</text><text x="2.004" y="1.67" class="f">cat</text><text x="6.012" y="1.67" class="f">recipe.yaml</text></symbol><symbol id="2"><text y="1.67" class="f">version:</text><text x="9.018" y="1.67" class="f">1</text></symbol><symbol id="3"><text y="1.67" class="f">resources:</text></symbol><symbol id="4"><text x="2.004" y="1.67" class="f">-</text><text x="4.008" y="1.67" class="f">id:</text><text x="8.016" y="1.67" class="f">tree</text></symbol><symbol id="5"><text x="4.008" y="1.67" class="f">type:</text><text x="10.02" y="1.67" class="f">package</text></symbol><symbol id="6"><text x="4.008" y="1.67" class="f">with:</text></symbol><symbol id="7"><text x="6.012" y="1.67" class="f">name:</text><text x="12.024" y="1.67" class="f">tree</text></symbol><symbol id="8"><text x="6.012" y="1.67" class="f">state:</text><text x="13.026" y="1.67" class="f">present</text></symbol><symbol id="9"><text y="1.67" class="f">$</text><text x="2.004" y="1.67" class="f">sinter</text><text x="9.018" y="1.67" class="f">plan</text><text x="14.028" y="1.67" class="f">recipe.yaml</text></symbol><symbol id="10"><text y="1.67" class="f">==</text><text x="3.006" y="1.67" class="f">Sinter</text><text x="10.02" y="1.67" class="f">PLAN</text><text x="15.03" y="1.67" class="f">==</text></symbol><symbol id="11"><text y="1.67" class="f">target</text><text x="7.014" y="1.67" class="f">facts:</text><text x="14.028" y="1.67" class="f">hostname=demo</text><text x="28.056" y="1.67" class="f">os=Ubuntu</text><text x="38.076" y="1.67" class="f">family=debian</text><text x="52.104" y="1.67" class="f">version=24.04</text><text x="66.132" y="1.67" class="f">arch=x86_64</text></symbol><symbol id="12"><text y="1.67" class="f">CHANGED</text><text x="9.018" y="1.67" class="f">tree</text><text x="14.028" y="1.67" class="f">[package]</text><text x="24.048" y="1.67" class="f">known/normal</text></symbol><symbol id="13"><text x="4.008" y="1.67" class="f">current:</text><text x="13.026" y="1.67" class="f">absent</text></symbol><symbol id="14"><text x="4.008" y="1.67" class="f">desired:</text><text x="13.026" y="1.67" class="f">installed</text></symbol><symbol id="15"><text y="1.67" class="f">summary:</text><text x="9.018" y="1.67" class="f">1</text><text x="11.022" y="1.67" class="f">changed,</text><text x="20.04" y="1.67" class="f">0</text><text x="22.044" y="1.67" class="f">possible,</text><text x="32.064" y="1.67" class="f">0</text><text x="34.068" y="1.67" class="f">failed,</text><text x="42.084" y="1.67" class="f">0</text><text x="44.088" y="1.67" class="f">indeterminate,</text><text x="59.118" y="1.67" class="f">1</text><text x="61.122" y="1.67" class="f">total</text></symbol><symbol id="16"><text y="1.67" class="f">status:</text><text x="8.016" y="1.67" class="f">success</text></symbol><symbol id="17"><text y="1.67" class="f">$</text><text x="2.004" y="1.67" class="f">sinter</text><text x="9.018" y="1.67" class="f">apply</text><text x="15.03" y="1.67" class="f">--sudo</text><text x="22.044" y="1.67" class="f">recipe.yaml</text></symbol><symbol id="18"><text y="1.67" class="f">==</text><text x="3.006" y="1.67" class="f">Sinter</text><text x="10.02" y="1.67" class="f">APPLY</text><text x="16.032" y="1.67" class="f">==</text></symbol><symbol id="19"><text y="1.67" class="f">$</text><text x="2.004" y="1.67" class="f">sinter</text><text x="9.018" y="1.67" class="f">audit</text><text x="15.03" y="1.67" class="f">recipe.yaml</text></symbol><symbol id="20"><text y="1.67" class="f">==</text><text x="3.006" y="1.67" class="f">Sinter</text><text x="10.02" y="1.67" class="f">AUDIT</text><text x="16.032" y="1.67" class="f">==</text></symbol><symbol id="21"><text y="1.67" class="f">PASS</text><text x="5.01" y="1.67" class="f">tree</text><text x="10.02" y="1.67" class="f">[package]</text></symbol><symbol id="22"><text x="4.008" y="1.67" class="f">reason:</text><text x="12.024" y="1.67" class="f">package</text><text x="20.04" y="1.67" class="f">already</text><text x="28.056" y="1.67" class="f">in</text><text x="31.062" y="1.67" class="f">desired</text><text x="39.078" y="1.67" class="f">state</text></symbol><symbol id="23"><text y="1.67" class="f">summary:</text><text x="9.018" y="1.67" class="f">1</text><text x="11.022" y="1.67" class="f">total,</text><text x="18.036" y="1.67" class="f">1</text><text x="20.04" y="1.67" class="f">compliant,</text><text x="31.062" y="1.67" class="f">0</text><text x="33.066" y="1.67" class="f">drifted,</text><text x="42.084" y="1.67" class="f">0</text><text x="44.088" y="1.67" class="f">not_auditable,</text><text x="59.118" y="1.67" class="f">0</text><text x="61.122" y="1.67" class="f">not_applicable,</text><text x="77.154" y="1.67" class="f">0</text><text x="79.158" y="1.67" class="f">e</text></symbol><symbol id="24"><text y="1.67" class="f">rrors</text></symbol><symbol id="25"><text y="1.67" class="f">status:</text><text x="8.016" y="1.67" class="f">no_drift</text></symbol><symbol id="a"><path fill="transparent" d="M0 0h80v25H0z"/></symbol></defs><path class="a" d="M0 0h80v52.104H0z"/><g style="animation-duration:12.718981s;animation-iteration-count:1;animation-fill-mode:forwards;animation-name:h;animation-timing-function:steps(1,end)"><svg width="800"><svg><use xlink:href="#a"/></svg><svg x="80"><use xlink:href="#a"/><use xlink:href="#1"/></svg><svg x="160"><use xlink:href="#a"/><use xlink:href="#1"/><use xlink:href="#2" y="2.171"/><use xlink:href="#3" y="6.513"/><use xlink:href="#4" y="8.684"/><use xlink:href="#5" y="10.855"/><use xlink:href="#6" y="13.026"/><use xlink:href="#7" y="15.197"/><use xlink:href="#8" y="17.368"/></svg><svg x="240"><use xlink:href="#a"/><use xlink:href="#1"/><use xlink:href="#2" y="2.171"/><use xlink:href="#3" y="6.513"/><use xlink:href="#4" y="8.684"/><use xlink:href="#5" y="10.855"/><use xlink:href="#6" y="13.026"/><use xlink:href="#7" y="15.197"/><use xlink:href="#8" y="17.368"/><use xlink:href="#9" y="19.539"/></svg><svg x="320"><use xlink:href="#a"/><use xlink:href="#1"/><use xlink:href="#2" y="2.171"/><use xlink:href="#3" y="6.513"/><use xlink:href="#4" y="8.684"/><use xlink:href="#5" y="10.855"/><use xlink:href="#6" y="13.026"/><use xlink:href="#7" y="15.197"/><use xlink:href="#8" y="17.368"/><use xlink:href="#9" y="19.539"/><use xlink:href="#10" y="21.71"/><use xlink:href="#11" y="23.881"/><use xlink:href="#12" y="28.223"/><use xlink:href="#13" y="30.394"/><use xlink:href="#14" y="32.565"/><use xlink:href="#15" y="36.907"/><use xlink:href="#16" y="39.078"/></svg><svg x="400"><use xlink:href="#a"/><use xlink:href="#1"/><use xlink:href="#2" y="2.171"/><use xlink:href="#3" y="6.513"/><use xlink:href="#4" y="8.684"/><use xlink:href="#5" y="10.855"/><use xlink:href="#6" y="13.026"/><use xlink:href="#7" y="15.197"/><use xlink:href="#8" y="17.368"/><use xlink:href="#9" y="19.539"/><use xlink:href="#10" y="21.71"/><use xlink:href="#11" y="23.881"/><use xlink:href="#12" y="28.223"/><use xlink:href="#13" y="30.394"/><use xlink:href="#14" y="32.565"/><use xlink:href="#15" y="36.907"/><use xlink:href="#16" y="39.078"/><use xlink:href="#17" y="41.249"/></svg><svg x="480"><use xlink:href="#a"/><use xlink:href="#3"/><use xlink:href="#4" y="2.171"/><use xlink:href="#5" y="4.342"/><use xlink:href="#6" y="6.513"/><use xlink:href="#7" y="8.684"/><use xlink:href="#8" y="10.855"/><use xlink:href="#9" y="13.026"/><use xlink:href="#10" y="15.197"/><use xlink:href="#11" y="17.368"/><use xlink:href="#12" y="21.71"/><use xlink:href="#13" y="23.881"/><use xlink:href="#14" y="26.052"/><use xlink:href="#15" y="30.394"/><use xlink:href="#16" y="32.565"/><use xlink:href="#17" y="34.736"/><use xlink:href="#18" y="36.907"/><use xlink:href="#11" y="39.078"/><use xlink:href="#12" y="43.42"/><use xlink:href="#15" y="47.762"/><use xlink:href="#16" y="49.933"/></svg><svg x="560"><use xlink:href="#a"/><use xlink:href="#4"/><use xlink:href="#5" y="2.171"/><use xlink:href="#6" y="4.342"/><use xlink:href="#7" y="6.513"/><use xlink:href="#8" y="8.684"/><use xlink:href="#9" y="10.855"/><use xlink:href="#10" y="13.026"/><use xlink:href="#11" y="15.197"/><use xlink:href="#12" y="19.539"/><use xlink:href="#13" y="21.71"/><use xlink:href="#14" y="23.881"/><use xlink:href="#15" y="28.223"/><use xlink:href="#16" y="30.394"/><use xlink:href="#17" y="32.565"/><use xlink:href="#18" y="34.736"/><use xlink:href="#11" y="36.907"/><use xlink:href="#12" y="41.249"/><use xlink:href="#15" y="45.591"/><use xlink:href="#16" y="47.762"/><use xlink:href="#19" y="49.933"/></svg><svg x="640"><use xlink:href="#a"/><use xlink:href="#10"/><use xlink:href="#11" y="2.171"/><use xlink:href="#12" y="6.513"/><use xlink:href="#13" y="8.684"/><use xlink:href="#14" y="10.855"/><use xlink:href="#15" y="15.197"/><use xlink:href="#16" y="17.368"/><use xlink:href="#17" y="19.539"/><use xlink:href="#18" y="21.71"/><use xlink:href="#11" y="23.881"/><use xlink:href="#12" y="28.223"/><use xlink:href="#15" y="32.565"/><use xlink:href="#16" y="34.736"/><use xlink:href="#19" y="36.907"/><use xlink:href="#20" y="39.078"/><use xlink:href="#21" y="41.249"/><use xlink:href="#22" y="43.42"/><use xlink:href="#23" y="45.591"/><use xlink:href="#24" y="47.762"/><use xlink:href="#25" y="49.933"/></svg><svg x="720"><use xlink:href="#a"/><use xlink:href="#10"/><use xlink:href="#11" y="2.171"/><use xlink:href="#12" y="6.513"/><use xlink:href="#13" y="8.684"/><use xlink:href="#14" y="10.855"/><use xlink:href="#15" y="15.197"/><use xlink:href="#16" y="17.368"/><use xlink:href="#17" y="19.539"/><use xlink:href="#18" y="21.71"/><use xlink:href="#11" y="23.881"/><use xlink:href="#12" y="28.223"/><use xlink:href="#15" y="32.565"/><use xlink:href="#16" y="34.736"/><use xlink:href="#19" y="36.907"/><use xlink:href="#20" y="39.078"/><use xlink:href="#21" y="41.249"/><use xlink:href="#22" y="43.42"/><use xlink:href="#23" y="45.591"/><use xlink:href="#24" y="47.762"/><use xlink:href="#25" y="49.933"/></svg></svg></g></g></svg></svg>